<svg width="24" height="24" viewBox="0 0 24 24" fill="none" xmlns="http://www.w3.org/2000/svg">
    <path d="M22.6666 11.1867C22.9143 11.0021 23.0981 10.7446 23.1922 10.4503C23.2862 10.156 23.2858 9.8396 23.191 9.54554C23.0961 9.25149 22.9116 8.99448 22.6634 8.81057C22.4151 8.62665 22.1155 8.52505 21.8066 8.52L15.8066 8.29333C15.7771 8.2913 15.7488 8.28078 15.7251 8.26303C15.7015 8.24529 15.6834 8.22109 15.6732 8.19334L13.5999 2.59333C13.4957 2.30843 13.3065 2.06241 13.0579 1.8886C12.8093 1.71478 12.5132 1.62157 12.2099 1.62157C11.9065 1.62157 11.6105 1.71478 11.3619 1.8886C11.1133 2.06241 10.9241 2.30843 10.8199 2.59333L8.75323 8.21334C8.74301 8.24109 8.72499 8.26529 8.70133 8.28303C8.67768 8.30078 8.64939 8.3113 8.61989 8.31334L2.61989 8.54C2.31096 8.54505 2.01136 8.64665 1.76309 8.83057C1.51482 9.01448 1.33033 9.27149 1.2355 9.56554C1.14067 9.8596 1.14024 10.176 1.23428 10.4703C1.32833 10.7646 1.51212 11.0221 1.75989 11.2067L6.46656 14.9067C6.49012 14.9252 6.50772 14.9502 6.5172 14.9787C6.52668 15.0071 6.52762 15.0377 6.51989 15.0667L4.89989 20.8067C4.81595 21.099 4.82408 21.41 4.92319 21.6975C5.02229 21.985 5.20756 22.235 5.45379 22.4135C5.70002 22.592 5.99525 22.6903 6.29933 22.695C6.6034 22.6998 6.90156 22.6107 7.15323 22.44L12.1266 19.1067C12.1511 19.0898 12.1801 19.0807 12.2099 19.0807C12.2397 19.0807 12.2687 19.0898 12.2932 19.1067L17.2666 22.44C17.5148 22.6166 17.8119 22.7114 18.1166 22.7114C18.4212 22.7114 18.7183 22.6166 18.9666 22.44C19.2128 22.2632 19.3983 22.0144 19.4974 21.7279C19.5965 21.4414 19.6043 21.1312 19.5199 20.84L17.8866 15.08C17.8779 15.0511 17.8784 15.0202 17.8879 14.9916C17.8975 14.9629 17.9156 14.9379 17.9399 14.92L22.6666 11.1867Z" fill="#EEEEEE"/>
</svg>
